<svg xmlns="http://www.w3.org/2000/svg" id="Ebene_2" viewBox="0 0 157.03 62.22"><defs><style>.cls-1{fill:#e6293f;}.cls-2{fill:#2b2c41;}</style></defs><g id="Logo"><g><path class="cls-2" d="m.45,6.73v16.6h4.8V6.73H.45Zm-.09-2.1h5.06V0H.35v4.64Z"></path><path class="cls-2" d="m8.99,23.35V6.73h4.8v2.21c.55-.81,1.31-1.47,2.19-1.9.88-.43,1.86-.63,2.84-.57.8-.04,1.61.09,2.36.38.75.28,1.44.72,2.02,1.28.56.57,1,1.26,1.29,2.01.29.75.41,1.55.37,2.36v10.84h-4.79v-9.54c.03-.8-.24-1.58-.77-2.19-.26-.28-.59-.5-.95-.65s-.74-.21-1.13-.19c-2.31,0-3.45,1.76-3.45,5.29v7.27h-4.8v.03Z"></path><path class="cls-2" d="m28.54,23.35V6.73h4.8v2.21c.55-.81,1.31-1.47,2.19-1.9.88-.43,1.86-.63,2.84-.57.81-.04,1.61.09,2.37.38.76.28,1.45.72,2.03,1.28.56.58.99,1.26,1.28,2.01s.41,1.55.37,2.36v10.84h-4.76v-9.54c.03-.8-.24-1.58-.77-2.19-.27-.28-.59-.5-.96-.65-.36-.15-.75-.21-1.14-.19-2.31,0-3.47,1.76-3.46,5.29v7.27h-4.8v.03Z"></path><path class="cls-2" d="m55.89,23.6c-1.15.04-2.3-.15-3.38-.56-1.08-.42-2.05-1.05-2.88-1.86-.8-.8-1.43-1.76-1.85-2.82-.42-1.06-.61-2.19-.57-3.32-.03-1.14.17-2.28.6-3.34s1.07-2.02,1.88-2.82c.81-.8,1.78-1.43,2.85-1.84,1.07-.41,2.2-.6,3.35-.56,1.15-.04,2.29.16,3.36.58,1.07.42,2.05,1.05,2.87,1.85,1.59,1.65,2.48,3.86,2.48,6.15s-.89,4.5-2.48,6.15c-.83.79-1.8,1.41-2.87,1.83-1.07.41-2.21.6-3.36.57Zm0-4.11c.53.01,1.05-.09,1.53-.31.48-.22.91-.54,1.25-.94.7-.92,1.08-2.05,1.08-3.21s-.38-2.28-1.08-3.21c-.36-.39-.79-.7-1.28-.92-.49-.21-1.01-.32-1.54-.32s-1.06.11-1.54.32c-.49.21-.92.53-1.28.92-.7.92-1.08,2.05-1.08,3.21s.38,2.28,1.08,3.21c.35.41.78.74,1.27.96.49.22,1.03.32,1.56.3"></path><path class="cls-2" d="m71.08,23.35l-5.97-16.6h4.8l3.34,11,3.34-11h4.83l-5.97,16.6h-4.37Z"></path><path class="cls-2" d="m89.44,6.47c1.99-.11,3.94.53,5.48,1.79.7.67,1.25,1.48,1.6,2.39.35.9.5,1.87.44,2.84v9.86h-4.64v-2.12c-.5.74-1.18,1.34-1.98,1.74-.82.42-1.72.63-2.64.63-1.44.05-2.84-.45-3.91-1.41-.5-.44-.89-.98-1.16-1.59-.27-.61-.4-1.27-.38-1.93,0-3.2,2.37-5.05,7.11-5.57l2.96-.31v-.07c.02-.36-.04-.72-.17-1.05-.13-.33-.34-.63-.6-.88-.58-.49-1.33-.75-2.1-.7-.72-.04-1.43.21-1.96.69-.54.48-.86,1.16-.9,1.88l-4.17-.8c.11-.77.38-1.52.79-2.19.41-.67.95-1.25,1.58-1.7,1.34-.99,2.97-1.51,4.64-1.48h.02Zm-.62,13.67c.47.02.94-.07,1.37-.25.43-.19.82-.47,1.12-.83.61-.73.94-1.65.93-2.61v-.26l-3.08.35c-.67.04-1.31.26-1.86.66-.2.15-.36.35-.47.57-.11.22-.16.47-.16.72,0,.24.06.48.18.69.11.21.28.39.48.52.44.34.99.51,1.54.47"></path><path class="cls-2" d="m110.53,23.18c-.87.28-1.77.42-2.68.42-1.65.08-3.27-.46-4.55-1.5-.6-.56-1.07-1.25-1.37-2.02-.3-.77-.42-1.59-.36-2.41v-6.91h-2.62v-4.03h2.62V1.91h4.8v4.82h3.99v4.03h-3.99v6.28c-.03.62.16,1.23.54,1.72.17.21.39.37.64.49.25.11.52.16.79.15.64.01,1.28-.13,1.86-.4l.33,4.18Z"></path><path class="cls-2" d="m113.21,6.73v16.6h4.81V6.73h-4.81Zm-.08-2.1h5.06V0h-5.06v4.64Z"></path><path class="cls-2" d="m129.56,23.6c-1.12,0-2.24-.22-3.28-.65-1.04-.43-1.98-1.06-2.78-1.86-.8-.79-1.43-1.74-1.86-2.78-.43-1.04-.65-2.15-.65-3.28s.22-2.24.65-3.28c.43-1.04,1.06-1.98,1.86-2.78.79-.79,1.74-1.43,2.78-1.86,1.04-.43,2.15-.65,3.28-.65,1.15-.04,2.29.16,3.36.58,1.07.42,2.04,1.05,2.86,1.85.82.8,1.47,1.76,1.89,2.83.43,1.06.62,2.21.58,3.35.03,1.14-.17,2.28-.6,3.34-.43,1.06-1.07,2.02-1.88,2.83-.83.79-1.8,1.41-2.87,1.82s-2.21.6-3.35.57v-.05Zm0-4.06c.53.01,1.05-.09,1.53-.31.48-.22.91-.54,1.25-.94.7-.92,1.08-2.05,1.08-3.21s-.38-2.28-1.08-3.21c-.36-.39-.8-.7-1.28-.92-.49-.21-1.01-.32-1.54-.32s-1.06.11-1.54.32-.92.53-1.28.92c-.7.92-1.08,2.05-1.08,3.21s.38,2.28,1.08,3.21c.35.41.78.74,1.28.96.49.22,1.03.32,1.57.29"></path><path class="cls-2" d="m141.13,23.35V6.73h4.8v2.21c.56-.81,1.32-1.47,2.2-1.9.88-.43,1.87-.63,2.85-.57.8-.04,1.61.09,2.36.38.75.28,1.44.72,2.02,1.28.56.58,1,1.26,1.28,2.01.28.75.41,1.55.37,2.36v10.84h-4.76v-9.54c.04-.8-.24-1.59-.77-2.19-.26-.28-.59-.5-.95-.65-.36-.15-.74-.21-1.13-.19-2.31,0-3.45,1.76-3.45,5.29v7.27h-4.83v.03Z"></path><g><path class="cls-1" d="m0,62.22v-21.53h3.96v1.82c.46-.63,1.1-1.13,1.93-1.51.83-.38,1.75-.56,2.78-.56,2.26,0,4.05.75,5.37,2.24,1.32,1.5,1.98,3.47,1.98,5.92s-.7,4.4-2.09,5.9c-1.39,1.5-3.24,2.26-5.54,2.26-1.97,0-3.44-.61-4.43-1.82v7.28H0Zm7.91-8.88c1.26,0,2.27-.43,3.03-1.3s1.15-2.01,1.15-3.44-.38-2.57-1.15-3.44-1.77-1.3-3.03-1.3-2.3.43-3.06,1.3-1.15,2.01-1.15,3.44.38,2.57,1.15,3.44,1.78,1.3,3.06,1.3Z"></path><path class="cls-1" d="m18.99,56.51v-22.22h3.96v22.22h-3.96Z"></path><path class="cls-1" d="m32.86,40.44c2.11,0,3.8.56,5.07,1.68,1.27,1.12,1.9,2.71,1.9,4.76v9.63h-3.83v-2.29c-.44.77-1.09,1.39-1.96,1.85s-1.79.69-2.78.69c-1.55,0-2.81-.44-3.8-1.33s-1.48-2.01-1.48-3.37c0-3.01,2.35-4.77,7.06-5.27l2.95-.28v-.16c0-.9-.28-1.61-.85-2.12-.56-.51-1.33-.77-2.29-.77-.86,0-1.57.25-2.15.75-.57.5-.9,1.17-.99,2.01l-3.51-.63c.25-1.55,1-2.79,2.24-3.73,1.25-.94,2.72-1.41,4.41-1.41Zm-.72,13.4c1.19,0,2.13-.4,2.82-1.19.69-.8,1.04-1.79,1.04-2.98v-.34l-3.01.34c-1.03.13-1.81.39-2.35.78-.54.4-.82.89-.82,1.48s.21,1.02.63,1.38c.42.36.98.53,1.69.53Z"></path><path class="cls-1" d="m52.79,56.35c-.75.27-1.6.41-2.54.41-1.67,0-3.02-.46-4.05-1.38-1.03-.92-1.54-2.27-1.54-4.05v-7.31h-2.67v-3.33h2.67v-4.65h3.96v4.65h3.99v3.33h-3.99v6.94c0,.73.18,1.3.55,1.71.37.41.86.61,1.49.61.73,0,1.35-.13,1.85-.38l.28,3.45Z"></path><path class="cls-1" d="m56.9,56.51v-12.49h-2.54v-3.33h2.54v-1.22c0-1.8.52-3.2,1.55-4.21s2.38-1.51,4.03-1.51c.79,0,1.59.11,2.39.34l-.28,3.26c-.5-.21-1.03-.31-1.57-.31-.67,0-1.2.22-1.58.66-.39.44-.58,1.03-.58,1.76v1.22h3.77v3.33h-3.77v12.49h-3.96Z"></path><path class="cls-1" d="m79.91,54.45c-1.55,1.54-3.53,2.31-5.93,2.31s-4.38-.77-5.93-2.31-2.32-3.49-2.32-5.85.77-4.31,2.32-5.85,3.53-2.31,5.93-2.31,4.38.77,5.93,2.31c1.55,1.54,2.32,3.49,2.32,5.85s-.78,4.32-2.32,5.85Zm-9.02-2.42c.79.87,1.82,1.3,3.09,1.3s2.31-.44,3.09-1.32c.78-.88,1.18-2.02,1.18-3.42s-.39-2.54-1.18-3.42c-.79-.88-1.82-1.32-3.09-1.32s-2.31.43-3.09,1.3c-.78.87-1.18,2.01-1.18,3.44s.39,2.57,1.18,3.44Z"></path><path class="cls-1" d="m95.42,44.52c-.56-.25-1.24-.38-2.01-.38-1.21,0-2.22.54-3.03,1.61-.81,1.08-1.21,2.73-1.21,4.95v5.81h-3.96v-15.82h3.96v2.89c.4-.9,1.05-1.65,1.96-2.24.91-.6,1.85-.89,2.81-.89.65,0,1.22.08,1.73.25l-.25,3.83Z"></path><path class="cls-1" d="m97.96,56.51v-15.82h3.96v2.42c1-1.78,2.52-2.67,4.55-2.67,2.53,0,4.18.99,4.93,2.98.46-.86,1.15-1.57,2.07-2.14.92-.56,1.98-.85,3.17-.85,1.69,0,3.06.5,4.1,1.49s1.55,2.28,1.55,3.85v10.73h-3.96v-9.63c0-.96-.25-1.72-.75-2.26s-1.21-.82-2.13-.82c-1.05,0-1.87.42-2.46,1.26s-.9,1.97-.9,3.39v8.07h-3.95v-9.63c0-.96-.25-1.72-.74-2.26s-1.19-.82-2.09-.82c-1.07,0-1.9.42-2.5,1.27s-.89,1.98-.89,3.4v8.04h-3.96Z"></path></g><g><path class="cls-2" d="m126.87,56.63c-.34,0-.62-.11-.85-.34s-.35-.51-.35-.84.11-.62.35-.84c.23-.22.51-.34.85-.34s.63.11.86.34c.23.23.34.51.34.84s-.11.62-.34.84c-.22.22-.51.34-.86.34Z"></path><path class="cls-2" d="m131.05,56.5l-2.82-7.73h1.95l1.76,5.49,1.76-5.49h1.96l-2.82,7.73h-1.79Z"></path><path class="cls-2" d="m140.17,56.63c-1.1,0-2.02-.29-2.75-.87-.73-.58-1.15-1.34-1.25-2.29l1.9-.31c.08.5.31.9.7,1.2s.86.45,1.42.45c.59,0,1.07-.16,1.43-.49s.55-.76.55-1.29-.17-.99-.52-1.3c-.35-.32-.82-.47-1.41-.47-.47,0-.87.12-1.21.35l-.81-1.37,2.95-2.68h-4.68v-1.8h7.12v1.69l-2.75,2.45c1.01-.04,1.83.23,2.46.81.63.58.94,1.37.94,2.37,0,1.06-.37,1.92-1.12,2.57s-1.73.97-2.96.97Z"></path></g></g></g></svg>